<?xml version="1.0" encoding="UTF-8" standalone="no"?>
<!DOCTYPE svg PUBLIC "-//W3C//DTD SVG 20010904//EN"
              "http://www.w3.org/TR/2001/REC-SVG-20010904/DTD/svg10.dtd">

<svg xmlns="http://www.w3.org/2000/svg"
     width="8.88889in" height="8.88889in"
     viewBox="0 0 640 640">
  <path id="Selection"
        fill="#222222" stroke="none" stroke-width="1"
        d="M 457.02,147.89
           C 459.83,149.14 461.68,147.71 466.00,148.80
             466.00,148.80 486.99,157.02 486.99,157.02
             493.82,160.02 493.54,162.89 497.17,164.81
             501.97,167.35 502.83,163.10 508.00,169.00
             496.61,172.39 493.52,189.27 498.57,198.94
             501.09,203.77 503.80,201.83 506.21,206.14
             508.38,210.03 517.14,230.62 518.24,235.00
             518.24,235.00 520.38,249.00 520.38,249.00
             520.38,249.00 523.75,257.00 523.75,257.00
             523.75,257.00 525.72,266.00 525.72,266.00
             526.79,268.96 528.74,270.77 529.57,274.00
             529.57,274.00 530.31,284.00 530.31,284.00
             531.80,289.94 539.31,293.47 540.26,297.12
             541.08,300.32 537.25,301.29 537.33,304.13
             537.39,306.06 541.14,310.85 542.34,313.00
             542.34,313.00 549.52,323.28 549.52,323.28
             552.58,329.58 548.09,334.47 561.00,338.00
             561.25,345.25 562.59,344.07 567.00,349.00
             564.36,350.50 556.22,353.70 556.61,357.10
             556.74,358.31 560.11,363.32 561.00,365.00
             561.00,365.00 563.00,365.00 563.00,365.00
             564.72,360.07 566.20,358.90 571.00,357.00
             571.00,357.00 569.83,369.00 569.83,369.00
             569.83,369.00 571.51,381.00 571.51,381.00
             571.51,381.00 578.16,394.28 578.16,394.28
             578.16,394.28 581.33,404.00 581.33,404.00
             581.33,404.00 583.21,414.00 583.21,414.00
             583.21,414.00 578.00,422.00 578.00,422.00
             586.88,420.52 584.57,422.80 591.07,427.91
             597.70,433.11 595.97,433.36 599.15,441.00
             602.58,449.22 605.60,462.11 606.59,471.00
             606.59,471.00 606.59,477.00 606.59,477.00
             606.86,479.62 608.45,483.21 607.41,485.61
             606.30,488.17 602.32,489.09 600.01,490.41
             595.34,493.08 588.62,501.07 582.00,500.01
             578.91,499.52 570.90,492.66 577.00,488.00
             577.00,488.00 577.00,486.00 577.00,486.00
             577.00,486.00 570.00,485.00 570.00,485.00
             570.00,485.00 564.69,472.00 564.69,472.00
             564.69,472.00 550.20,440.00 550.20,440.00
             550.20,440.00 540.35,410.00 540.35,410.00
             540.35,410.00 537.87,402.00 537.87,402.00
             537.87,402.00 534.47,395.00 534.47,395.00
             531.78,387.87 535.30,385.19 525.00,378.22
             515.07,371.51 511.74,379.28 503.00,377.69
             500.30,377.20 498.39,375.62 496.00,375.52
             493.65,375.41 487.92,378.75 478.00,378.99
             467.19,379.24 464.77,376.90 461.00,377.14
             461.00,377.14 454.00,378.49 454.00,378.49
             454.00,378.49 447.00,378.49 447.00,378.49
             447.00,378.49 439.00,379.99 439.00,379.99
             439.00,379.99 431.00,379.99 431.00,379.99
             431.00,379.99 420.00,381.83 420.00,381.83
             413.77,382.43 411.30,381.09 409.00,381.04
             406.31,380.98 405.36,381.87 403.00,382.32
             395.41,383.76 391.13,383.21 390.00,393.00
             385.62,390.86 384.78,389.81 384.00,385.00
             377.93,386.53 377.53,384.60 374.00,380.00
             372.12,389.84 366.13,388.35 362.54,394.09
             360.68,397.44 362.86,399.74 362.54,402.91
             362.54,402.91 357.00,416.00 357.00,416.00
             355.33,415.33 354.53,415.35 353.55,413.58
             353.55,413.58 351.98,409.00 351.98,409.00
             349.52,404.31 340.62,394.63 337.56,404.02
             337.56,404.02 336.25,410.00 336.25,410.00
             336.25,410.00 334.00,417.00 334.00,417.00
             334.00,417.00 344.00,408.00 344.00,408.00
             346.19,418.05 340.18,417.00 340.00,428.00
             339.78,441.48 342.99,439.16 343.00,454.00
             343.00,454.00 326.00,459.00 326.00,459.00
             326.00,459.00 326.00,455.00 326.00,455.00
             321.03,457.83 321.05,458.89 319.00,464.00
             321.91,464.07 327.40,464.22 328.83,467.39
             329.78,469.49 328.17,471.37 327.06,473.00
             324.42,476.90 321.03,483.94 316.98,485.92
             313.93,487.51 309.32,486.33 306.00,485.92
             302.93,485.44 295.36,485.12 293.31,483.40
             289.85,480.48 291.43,474.16 290.79,470.00
             290.05,465.25 287.72,463.80 287.13,459.00
             286.21,451.56 289.41,445.98 291.00,439.00
             291.00,439.00 300.00,440.00 300.00,440.00
             303.47,429.27 299.72,431.05 300.83,426.00
             301.43,423.25 303.91,420.92 303.85,418.01
             303.76,413.79 295.42,408.38 305.02,404.92
             305.02,404.92 309.00,404.00 309.00,404.00
             307.60,399.01 305.62,397.70 305.16,394.00
             304.54,388.97 306.65,383.32 309.00,379.00
             309.00,379.00 320.00,386.00 320.00,386.00
             321.58,375.76 324.40,376.12 326.13,371.00
             327.66,367.17 326.94,361.87 326.13,358.00
             336.31,349.39 329.24,345.76 329.00,335.00
             332.54,336.40 339.15,341.19 341.98,340.65
             347.72,339.55 346.73,333.22 347.18,329.00
             347.38,327.09 348.01,324.88 347.80,323.00
             347.58,321.14 346.76,319.67 346.00,318.00
             357.30,316.17 355.58,306.09 359.35,298.00
             362.02,292.28 364.60,291.26 368.00,297.00
             378.12,288.36 365.05,272.17 378.00,270.00
             380.86,282.69 379.10,280.54 380.15,286.98
             380.41,288.58 381.33,291.47 383.55,290.09
             386.57,288.21 385.62,281.52 386.29,279.21
             387.10,276.42 390.70,274.67 393.00,273.00
             387.00,270.27 375.78,261.77 377.32,254.09
             378.39,248.75 385.83,246.73 391.10,239.56
             395.11,234.11 394.39,230.79 395.98,228.63
             397.80,226.17 402.23,225.30 404.40,222.61
             406.18,220.41 405.98,217.67 406.00,215.00
             406.00,215.00 406.00,205.00 406.00,205.00
             406.00,205.00 414.00,205.00 414.00,205.00
             414.00,205.00 414.00,196.00 414.00,196.00
             420.73,193.70 422.84,190.93 421.00,184.00
             425.55,181.71 428.96,179.64 429.44,174.00
             429.88,168.81 422.69,156.64 433.04,152.60
             434.36,152.08 435.63,152.11 437.00,152.00
             438.75,146.36 444.71,143.90 449.00,140.00
             451.47,142.39 454.15,146.61 457.02,147.89 Z
           M 136.90,155.04
           C 140.96,159.29 142.45,164.77 145.50,163.09
             146.94,162.30 147.51,159.62 150.14,158.78
             152.03,157.93 155.03,158.58 157.00,158.78
             157.00,158.78 167.00,160.91 167.00,160.91
             171.19,161.24 176.29,160.16 179.57,163.43
             182.68,166.54 182.96,174.75 183.00,179.00
             189.92,180.41 201.19,188.02 203.17,195.00
             204.40,198.41 203.61,201.61 203.17,205.00
             215.23,201.82 210.48,203.23 222.00,205.00
             222.05,218.52 227.15,215.39 229.47,225.00
             230.06,227.46 229.91,229.55 230.09,232.00
             230.09,232.00 230.97,241.00 230.97,241.00
             230.97,241.00 229.07,263.00 229.07,263.00
             229.07,263.00 229.07,277.00 229.07,277.00
             229.02,280.29 230.49,287.63 229.07,289.82
             228.36,291.30 226.40,292.69 224.99,293.64
             218.04,298.31 216.52,295.64 210.00,292.00
             210.00,292.00 214.95,312.00 214.95,312.00
             215.26,317.03 213.26,325.79 206.13,323.22
             203.79,322.38 201.57,318.94 200.00,317.00
             199.13,326.29 194.54,329.69 189.76,337.00
             189.76,337.00 185.00,346.00 185.00,346.00
             181.75,337.08 180.79,340.21 172.00,341.00
             172.00,344.34 173.07,352.56 169.71,354.26
             167.65,355.30 163.52,354.78 161.00,355.30
             158.10,355.89 154.70,358.42 152.70,356.35
             150.54,354.09 153.85,352.71 152.00,346.00
             149.77,347.66 147.57,349.05 146.97,352.00
             146.52,354.22 147.94,356.15 146.30,358.82
             144.43,361.85 133.51,368.51 130.00,370.00
             130.66,371.60 131.23,372.02 131.01,374.00
             130.51,378.54 120.24,391.17 117.00,395.00
             123.26,394.36 127.54,393.51 131.00,388.00
             131.00,388.00 135.00,389.00 135.00,389.00
             136.38,385.63 137.64,385.97 141.00,385.00
             146.93,391.17 148.10,387.47 154.00,390.31
             157.62,392.06 159.85,395.32 164.00,396.99
             167.67,398.48 175.77,398.00 180.00,398.00
             180.00,398.00 181.00,405.00 181.00,405.00
             178.20,406.12 172.64,407.88 171.02,410.39
             169.78,412.32 170.00,415.74 170.00,418.00
             169.99,424.06 169.12,429.53 172.00,435.00
             172.00,435.00 176.36,413.00 176.36,413.00
             177.24,410.45 178.74,406.63 182.00,406.63
             187.63,406.63 189.99,417.73 191.73,419.42
             194.58,422.09 198.00,418.98 201.98,419.42
             209.09,420.26 206.73,427.32 216.00,425.00
             211.52,422.46 211.61,418.74 214.43,417.68
             216.61,416.85 225.34,420.21 228.00,420.96
             237.03,423.51 242.89,419.29 246.73,424.50
             248.02,426.26 248.52,428.91 249.00,431.00
             249.00,431.00 254.00,429.00 254.00,429.00
             254.00,429.00 252.00,421.00 252.00,421.00
             253.89,421.19 255.15,421.32 257.00,421.88
             269.99,425.78 257.70,435.21 254.59,440.00
             252.67,442.96 252.97,445.99 249.85,448.26
             246.94,450.39 242.46,450.00 239.00,450.00
             239.00,450.00 243.00,457.00 243.00,457.00
             232.64,459.82 236.02,453.27 230.00,445.00
             229.77,448.53 230.42,453.85 228.69,456.85
             225.73,461.99 215.83,460.00 213.02,455.61
             211.46,453.18 212.45,446.96 211.00,441.00
             207.72,448.09 208.60,456.73 211.00,464.00
             211.00,464.00 212.00,459.00 212.00,459.00
             216.59,462.37 217.66,463.87 220.00,469.00
             225.98,465.88 231.20,461.72 238.00,461.00
             238.00,461.00 234.00,488.00 234.00,488.00
             215.19,490.50 218.20,493.98 208.00,496.32
             199.42,498.29 190.43,496.69 182.00,495.00
             182.42,482.84 176.54,486.50 169.00,482.36
             169.00,482.36 156.00,474.21 156.00,474.21
             150.06,471.65 143.03,471.69 134.00,466.65
             129.42,464.10 120.95,456.01 118.05,455.73
             114.55,455.40 113.15,460.46 112.00,463.00
             106.27,461.00 105.74,458.53 102.00,454.00
             99.92,458.93 99.75,459.78 101.00,465.00
             92.73,464.02 94.76,460.64 94.00,454.00
             87.49,458.17 91.25,461.09 89.69,466.91
             88.64,470.81 82.72,475.19 79.00,476.35
             75.37,477.49 70.90,476.62 68.04,477.31
             63.52,478.40 64.48,480.71 58.00,480.98
             54.32,481.13 47.33,480.75 44.21,478.84
             36.73,474.26 34.01,459.14 34.00,451.00
             34.00,451.00 34.00,435.00 34.00,435.00
             34.02,419.74 41.67,388.64 48.32,375.00
             53.47,364.46 58.85,367.24 65.06,358.96
             68.30,354.64 68.81,350.92 70.78,348.17
             72.92,345.16 76.03,344.62 78.16,341.25
             80.84,337.04 77.80,336.19 84.00,333.00
             84.94,333.79 85.61,334.84 87.09,334.81
             91.55,334.71 96.12,321.74 97.00,318.00
             105.51,317.97 112.89,317.59 117.00,309.00
             117.00,309.00 126.79,308.42 126.79,308.42
             126.79,308.42 132.21,305.29 132.21,305.29
             132.21,305.29 139.00,304.15 139.00,304.15
             139.00,304.15 160.61,287.83 160.61,287.83
             160.61,287.83 163.81,281.53 163.81,281.53
             163.81,281.53 169.37,276.62 169.37,276.62
             169.37,276.62 180.57,259.00 180.57,259.00
             180.57,259.00 184.68,239.00 184.68,239.00
             184.68,239.00 190.00,226.00 190.00,226.00
             190.00,226.00 169.00,220.00 169.00,220.00
             169.00,220.00 169.00,214.00 169.00,214.00
             156.47,219.20 160.64,210.80 149.00,206.67
             144.19,204.97 136.93,202.25 132.00,202.04
             124.63,201.72 109.92,204.38 103.00,207.07
             97.61,209.16 88.74,215.02 87.47,221.00
             86.31,226.52 90.88,229.11 95.00,231.24
             104.47,236.16 114.06,243.33 120.59,252.00
             124.56,257.59 123.85,261.14 120.59,266.98
             119.69,268.93 117.96,272.11 115.23,270.83
             112.54,269.57 112.24,265.54 112.00,263.00
             112.00,263.00 98.00,266.00 98.00,266.00
             98.00,266.00 104.00,257.00 104.00,257.00
             99.28,259.40 88.49,262.62 83.37,260.43
             83.37,260.43 77.90,256.26 77.90,256.26
             73.98,253.91 71.96,254.10 68.55,249.91
             64.91,245.42 63.92,238.61 58.90,234.42
             53.55,229.96 39.73,229.04 37.02,224.73
             35.79,222.76 36.00,219.28 36.00,217.00
             36.00,217.00 36.00,190.00 36.00,190.00
             35.89,183.55 34.44,182.83 33.00,177.00
             44.08,175.72 42.67,168.05 48.32,165.57
             48.32,165.57 68.00,162.70 68.00,162.70
             71.85,161.57 74.36,159.62 78.00,158.04
             78.00,158.04 86.00,155.21 86.00,155.21
             86.00,155.21 92.00,152.51 92.00,152.51
             94.90,151.69 106.26,152.00 110.00,152.00
             110.00,152.00 109.00,143.00 109.00,143.00
             118.00,143.20 130.66,148.52 136.90,155.04 Z
           M 107.00,156.00
           C 108.29,160.04 108.86,160.31 113.00,161.00
             113.00,161.00 113.00,155.00 113.00,155.00
             113.00,155.00 107.00,156.00 107.00,156.00 Z
           M 78.00,217.00
           C 78.00,217.00 81.00,219.00 81.00,219.00
             81.00,219.00 80.00,216.00 80.00,216.00
             80.00,216.00 78.00,217.00 78.00,217.00 Z
           M 499.74,311.00
           C 499.74,311.00 495.12,302.00 495.12,302.00
             495.12,302.00 489.98,294.00 489.98,294.00
             489.98,294.00 472.80,255.00 472.80,255.00
             470.34,248.73 466.96,232.46 463.42,228.41
             462.29,227.12 461.39,226.81 459.76,226.00
             454.61,236.58 458.40,236.40 459.76,243.00
             460.88,251.08 461.00,256.88 461.00,265.00
             461.00,265.00 452.00,263.00 452.00,263.00
             452.00,263.00 457.00,273.00 457.00,273.00
             457.00,273.00 447.00,269.68 447.00,269.68
             442.01,268.64 440.22,272.50 437.00,267.00
             437.00,267.00 431.00,267.00 431.00,267.00
             434.84,276.18 439.05,272.09 441.41,277.22
             441.41,277.22 442.42,282.00 442.42,282.00
             442.42,282.00 444.09,287.00 444.09,287.00
             444.52,289.63 441.99,296.52 440.74,299.00
             437.50,305.41 434.58,305.66 433.00,314.00
             428.33,309.27 431.00,307.21 429.00,299.00
             420.01,303.40 422.36,309.98 422.91,318.00
             423.15,321.48 422.66,323.63 424.00,327.00
             424.86,325.68 427.93,320.37 429.89,323.46
             431.28,325.65 428.84,329.56 428.67,332.00
             428.23,338.29 434.64,337.99 439.00,338.06
             439.00,338.06 449.00,338.06 449.00,338.06
             449.00,338.06 455.00,339.34 455.00,339.34
             455.00,339.34 460.00,339.34 460.00,339.34
             467.68,340.74 465.88,341.98 476.00,341.92
             476.00,341.92 486.00,341.92 486.00,341.92
             490.46,341.40 495.64,339.85 500.00,340.18
             505.81,340.62 506.77,341.93 515.00,342.00
             514.84,324.82 506.99,323.25 499.74,311.00 Z
           M 206.00,276.00
           C 206.00,276.00 202.00,289.00 202.00,289.00
             206.46,284.99 206.86,281.67 208.00,276.00
             208.00,276.00 206.00,276.00 206.00,276.00 Z
           M 397.00,316.56
           C 395.12,318.19 392.56,319.94 391.57,322.29
             388.82,328.88 393.39,336.95 400.96,335.85
             406.28,335.08 406.17,330.21 407.03,326.00
             408.64,318.40 412.61,318.02 407.03,307.00
             407.03,307.00 397.00,316.56 397.00,316.56 Z
           M 394.00,308.00
           C 394.00,308.00 395.00,309.00 395.00,309.00
             395.00,309.00 395.00,308.00 395.00,308.00
             395.00,308.00 394.00,308.00 394.00,308.00 Z
           M 188.00,325.00
           C 188.00,325.00 190.00,325.00 190.00,325.00
             190.00,325.00 193.00,312.00 193.00,312.00
             185.53,316.63 185.38,316.90 188.00,325.00 Z
           M 106.00,321.00
           C 106.00,321.00 107.00,322.00 107.00,322.00
             107.00,322.00 107.00,321.00 107.00,321.00
             107.00,321.00 106.00,321.00 106.00,321.00 Z
           M 416.00,340.00
           C 416.00,340.00 417.00,330.00 417.00,330.00
             414.56,333.32 414.50,336.21 416.00,340.00 Z
           M 100.73,343.00
           C 101.86,349.06 99.72,356.25 102.00,362.00
             102.00,362.00 109.73,345.00 109.73,345.00
             109.73,345.00 109.73,337.56 109.73,337.56
             109.73,337.56 100.00,332.00 100.00,332.00
             97.19,337.15 99.81,338.05 100.73,343.00 Z
           M 517.00,352.00
           C 517.00,352.00 518.00,353.00 518.00,353.00
             518.00,353.00 518.00,352.00 518.00,352.00
             518.00,352.00 517.00,352.00 517.00,352.00 Z
           M 74.00,354.00
           C 74.00,354.00 86.00,357.00 86.00,357.00
             83.32,352.26 78.74,352.12 74.00,354.00 Z
           M 339.00,357.00
           C 339.00,357.00 340.00,358.00 340.00,358.00
             340.00,358.00 340.00,357.00 340.00,357.00
             340.00,357.00 339.00,357.00 339.00,357.00 Z
           M 110.00,362.00
           C 110.00,362.00 110.00,365.00 110.00,365.00
             110.00,365.00 113.00,365.00 113.00,365.00
             113.00,365.00 113.00,362.00 113.00,362.00
             113.00,362.00 110.00,362.00 110.00,362.00 Z
           M 61.00,372.00
           C 61.00,372.00 63.00,368.00 63.00,368.00
             63.00,368.00 61.00,372.00 61.00,372.00 Z
           M 53.00,375.00
           C 53.00,375.00 54.00,382.00 54.00,382.00
             54.00,382.00 56.00,376.00 56.00,376.00
             56.00,376.00 53.00,375.00 53.00,375.00 Z
           M 413.00,376.00
           C 413.00,376.00 414.00,377.00 414.00,377.00
             414.00,377.00 414.00,376.00 414.00,376.00
             414.00,376.00 413.00,376.00 413.00,376.00 Z
           M 70.00,381.00
           C 70.00,381.00 69.00,377.00 69.00,377.00
             67.61,379.42 67.74,379.41 70.00,381.00 Z
           M 110.00,399.00
           C 111.22,394.00 111.42,391.00 110.00,386.00
             107.22,390.30 107.93,394.51 110.00,399.00 Z
           M 336.00,389.00
           C 336.00,389.00 337.00,390.00 337.00,390.00
             337.00,390.00 337.00,389.00 337.00,389.00
             337.00,389.00 336.00,389.00 336.00,389.00 Z
           M 350.00,393.00
           C 350.00,393.00 350.00,389.00 350.00,389.00
             350.00,389.00 350.00,393.00 350.00,393.00 Z
           M 148.00,395.00
           C 148.00,395.00 144.65,416.00 144.65,416.00
             144.65,416.00 151.00,424.00 151.00,424.00
             153.17,418.79 152.33,419.88 153.12,415.00
             155.59,402.53 153.52,406.28 153.12,395.00
             153.12,395.00 148.00,395.00 148.00,395.00 Z
           M 100.96,406.34
           C 104.31,405.34 105.84,401.95 107.00,399.00
             107.00,399.00 94.00,396.00 94.00,396.00
             92.43,400.79 95.58,407.97 100.96,406.34 Z
           M 136.00,400.00
           C 136.00,400.00 134.00,406.00 134.00,406.00
             137.35,404.11 137.37,403.76 138.00,400.00
             138.00,400.00 136.00,400.00 136.00,400.00 Z
           M 350.81,429.34
           C 349.37,431.76 351.06,434.69 352.00,437.00
             345.78,435.93 344.89,429.62 348.51,425.21
             352.08,420.86 358.93,419.69 364.00,418.00
             365.96,426.04 353.98,424.02 350.81,429.34 Z
           M 194.00,427.00
           C 194.00,427.00 195.00,428.00 195.00,428.00
             195.00,428.00 195.00,427.00 195.00,427.00
             195.00,427.00 194.00,427.00 194.00,427.00 Z
           M 177.00,441.00
           C 183.24,442.62 184.09,444.18 188.00,449.00
             188.00,449.00 190.00,444.00 190.00,444.00
             190.00,444.00 197.00,452.00 197.00,452.00
             197.00,447.45 197.33,436.39 191.89,434.89
             190.40,434.33 188.51,434.78 187.00,434.89
             187.00,434.89 187.00,428.00 187.00,428.00
             182.49,431.38 178.60,435.51 177.00,441.00 Z
           M 159.00,440.00
           C 159.00,440.00 160.00,441.00 160.00,441.00
             160.00,441.00 160.00,440.00 160.00,440.00
             160.00,440.00 159.00,440.00 159.00,440.00 Z
           M 112.76,448.98
           C 113.74,441.65 105.61,441.85 108.75,448.98
             108.75,448.98 111.00,453.00 111.00,453.00
             111.99,451.46 112.50,450.90 112.76,448.98 Z
           M 76.00,451.00
           C 76.00,451.00 76.00,447.00 76.00,447.00
             76.00,447.00 76.00,451.00 76.00,451.00 Z
           M 238.00,449.00
           C 238.00,449.00 239.00,450.00 239.00,450.00
             239.00,450.00 239.00,449.00 239.00,449.00
             239.00,449.00 238.00,449.00 238.00,449.00 Z
           M 310.00,468.00
           C 314.97,466.18 313.30,463.61 311.00,460.00
             311.00,460.00 310.00,468.00 310.00,468.00 Z
           M 142.00,463.00
           C 145.53,468.17 149.28,467.00 155.00,467.00
             150.65,462.21 148.05,463.00 142.00,463.00 Z
           M 310.00,479.00
           C 310.00,479.00 311.00,480.00 311.00,480.00
             311.00,480.00 311.00,479.00 311.00,479.00
             311.00,479.00 310.00,479.00 310.00,479.00 Z" />
</svg>
