<?xml version="1.0" encoding="UTF-8" standalone="no"?>
<!DOCTYPE svg PUBLIC "-//W3C//DTD SVG 20010904//EN"
              "http://www.w3.org/TR/2001/REC-SVG-20010904/DTD/svg10.dtd">

<svg xmlns="http://www.w3.org/2000/svg"
     width="8.88889in" height="8.88889in"
     viewBox="0 0 640 640">
  <path id="Path rounded"
        fill="#222222" stroke="none" stroke-width="1"
        d="M 132.00,0.11
           C 132.00,0.11 237.00,0.11 237.00,0.11
             237.00,0.11 555.00,0.11 555.00,0.11
             599.27,0.07 639.93,40.73 640.00,85.00
             640.00,85.00 640.00,389.00 640.00,389.00
             640.00,389.00 640.00,557.00 640.00,557.00
             639.49,600.04 597.77,639.93 555.00,640.00
             555.00,640.00 251.00,640.00 251.00,640.00
             251.00,640.00 83.00,640.00 83.00,640.00
             39.96,639.49 0.07,597.77 0.00,555.00
             0.00,555.00 0.00,251.00 0.00,251.00
             0.00,251.00 0.00,83.00 0.00,83.00
             0.12,72.86 3.47,61.14 7.78,52.00
             21.44,23.08 45.72,5.55 77.00,0.11
             77.00,0.11 132.00,0.11 132.00,0.11 Z
           M 430.00,120.00
           C 426.06,128.39 417.22,130.47 413.80,138.00
             410.29,145.75 415.44,152.35 414.53,159.00
             413.26,168.38 407.65,164.00 407.49,173.02
             407.40,177.50 405.65,180.54 401.00,181.00
             399.84,185.08 399.84,186.92 401.00,191.00
             389.20,191.42 396.00,200.49 393.69,208.90
             392.64,212.69 388.32,214.61 385.00,216.00
             384.09,222.76 383.45,226.58 379.23,232.17
             376.09,236.32 370.41,240.92 369.30,246.00
             368.01,251.90 371.78,257.69 375.47,261.96
             377.77,264.62 378.98,265.37 382.00,267.00
             382.00,267.00 382.00,269.00 382.00,269.00
             375.18,272.46 376.39,273.15 375.91,280.00
             375.91,280.00 375.00,288.00 375.00,288.00
             368.33,281.24 375.69,267.82 367.00,263.00
             361.16,271.65 365.38,283.20 363.00,293.00
             363.00,293.00 359.00,288.00 359.00,288.00
             359.00,288.00 356.00,288.00 356.00,288.00
             354.30,291.56 352.98,294.14 351.92,298.00
             349.93,305.21 350.76,314.55 342.00,316.00
             342.00,316.00 343.25,323.00 343.25,323.00
             343.25,323.00 341.96,335.00 341.96,335.00
             341.78,337.44 341.21,341.71 337.89,341.66
             334.70,341.62 332.68,337.28 326.00,335.00
             326.00,335.00 329.17,353.00 329.17,353.00
             329.17,353.00 324.25,363.17 324.25,363.17
             324.25,363.17 323.71,376.00 323.71,376.00
             323.71,376.00 320.97,383.11 320.97,383.11
             320.97,383.11 319.00,392.00 319.00,392.00
             319.00,392.00 312.00,384.00 312.00,384.00
             310.63,384.82 310.15,384.81 309.13,386.29
             307.26,389.03 305.66,399.70 306.30,403.00
             306.82,405.69 308.48,407.82 308.11,409.89
             307.43,413.69 301.88,413.74 301.54,418.05
             301.26,421.58 305.03,424.37 305.19,428.00
             305.32,431.15 302.57,434.26 302.02,437.00
             301.46,439.79 302.68,441.41 302.91,444.00
             303.10,446.16 302.32,449.68 302.00,452.00
             293.58,448.20 294.26,453.02 292.00,460.00
             290.40,464.95 289.26,469.76 290.39,475.00
             290.39,475.00 293.81,484.00 293.81,484.00
             294.11,486.32 293.99,489.57 293.81,492.00
             294.02,494.91 293.88,499.16 296.01,501.43
             297.55,503.08 299.93,502.98 302.00,503.36
             306.34,503.93 314.62,506.61 318.21,503.36
             320.33,501.55 322.32,496.61 323.68,494.00
             324.74,491.96 327.76,487.69 328.12,486.00
             329.26,480.62 323.11,478.48 319.00,478.00
             319.00,478.00 324.00,470.00 324.00,470.00
             324.00,470.00 324.00,474.00 324.00,474.00
             324.00,474.00 341.00,468.00 341.00,468.00
             340.99,452.70 337.91,457.21 338.00,439.00
             338.05,428.50 340.26,430.46 341.61,424.00
             342.50,419.75 342.15,417.45 338.00,416.00
             336.47,420.54 335.63,422.75 332.00,426.00
             332.00,426.00 336.74,409.29 336.74,409.29
             336.74,409.29 340.00,407.00 340.00,407.00
             342.23,411.76 344.21,412.73 345.83,416.00
             348.54,421.48 345.11,424.60 353.00,427.00
             353.00,427.00 356.89,412.00 356.89,412.00
             356.89,412.00 356.89,402.00 356.89,402.00
             356.89,402.00 368.00,387.00 368.00,387.00
             368.66,390.96 370.04,392.34 374.00,393.00
             375.12,397.67 375.94,399.34 380.00,402.00
             380.79,399.62 381.76,394.97 382.93,393.19
             385.26,389.67 393.01,387.60 397.00,387.85
             399.87,388.03 400.91,389.30 406.00,388.71
             406.00,388.71 414.00,387.05 414.00,387.05
             414.00,387.05 422.00,387.05 422.00,387.05
             422.00,387.05 429.00,385.32 429.00,385.32
             429.00,385.32 441.00,384.07 441.00,384.07
             445.65,383.55 450.01,386.24 456.00,385.82
             456.00,385.82 466.00,384.50 466.00,384.50
             468.80,383.70 470.68,381.97 472.96,382.09
             475.02,382.19 476.50,383.85 478.28,384.43
             482.52,385.81 487.07,382.36 490.58,382.06
             494.10,381.75 497.46,384.51 499.89,386.76
             505.10,391.57 503.66,394.65 505.13,401.00
             505.13,401.00 508.03,409.00 508.03,409.00
             508.03,409.00 510.43,418.00 510.43,418.00
             510.43,418.00 522.67,465.00 522.67,465.00
             527.26,479.09 533.23,487.44 536.00,503.00
             540.12,502.93 540.33,502.75 543.00,506.00
             536.25,508.81 544.53,518.14 546.17,518.78
             548.94,519.86 556.20,516.38 558.23,514.37
             560.01,512.61 559.83,511.55 563.11,509.10
             565.30,507.46 568.24,506.47 569.20,503.79
             570.35,501.59 569.01,488.83 569.20,485.00
             568.98,474.03 566.31,463.37 563.03,453.00
             563.03,453.00 560.49,444.18 560.49,444.18
             559.17,441.55 557.17,440.65 555.21,438.68
             550.42,433.85 551.59,429.96 545.00,432.00
             545.00,432.00 548.75,423.00 548.75,423.00
             548.75,423.00 542.35,395.00 542.35,395.00
             542.35,395.00 539.41,388.00 539.41,388.00
             539.41,388.00 538.79,381.00 538.79,381.00
             538.79,381.00 537.50,375.00 537.50,375.00
             537.50,375.00 539.00,360.00 539.00,360.00
             533.97,361.49 532.68,363.10 531.00,368.00
             531.00,368.00 529.00,368.00 529.00,368.00
             528.19,366.43 525.34,361.93 525.24,360.62
             524.98,357.06 532.33,353.60 535.00,352.00
             533.21,348.40 532.84,348.07 529.00,347.00
             531.71,337.02 525.33,339.18 522.01,333.79
             520.45,331.26 520.42,326.08 519.46,323.09
             519.46,323.09 513.87,312.00 513.87,312.00
             511.41,306.26 504.18,301.28 513.00,298.00
             511.78,289.28 507.62,290.37 504.31,284.00
             502.68,280.84 503.02,277.43 503.00,274.00
             502.94,265.48 501.89,267.75 499.61,261.00
             498.10,256.54 498.28,252.71 497.59,250.00
             497.59,250.00 495.03,243.58 495.03,243.58
             493.10,236.13 495.41,229.16 490.09,215.00
             490.09,215.00 481.89,193.13 481.89,193.13
             480.04,189.45 478.15,190.07 476.08,186.86
             473.44,182.76 473.98,175.79 474.00,171.00
             474.04,163.63 475.81,154.79 484.00,153.00
             481.62,146.02 477.66,149.72 473.34,146.41
             473.34,146.41 468.56,140.79 468.56,140.79
             466.61,138.96 458.68,134.61 456.00,133.27
             453.71,132.12 447.30,129.23 445.00,128.80
             442.47,128.32 440.34,129.09 438.39,127.94
             435.85,126.44 434.76,122.65 434.00,120.00
             434.00,120.00 430.00,120.00 430.00,120.00 Z
           M 161.37,137.00
           C 155.85,129.34 144.42,123.24 135.00,123.00
             135.00,123.00 137.00,132.00 137.00,132.00
             137.00,132.00 127.00,132.00 127.00,132.00
             127.00,132.00 121.28,132.57 121.28,132.57
             121.28,132.57 102.00,144.17 102.00,144.17
             102.00,144.17 81.00,148.00 81.00,148.00
             79.99,151.20 78.59,154.26 76.40,156.86
             73.43,160.37 69.63,160.36 70.50,166.00
             71.12,170.05 71.90,169.20 72.00,175.00
             72.00,175.00 72.00,207.00 72.00,207.00
             72.00,209.25 71.78,212.68 73.02,214.61
             75.38,218.27 82.21,218.40 86.00,222.00
             86.00,222.00 89.00,221.00 89.00,221.00
             90.93,224.17 94.22,226.13 95.78,229.58
             97.12,232.54 96.66,237.39 100.94,242.91
             106.27,249.78 110.21,246.84 112.00,255.00
             119.77,254.98 125.40,254.49 132.00,250.00
             128.48,254.12 126.91,253.67 126.00,259.00
             126.00,259.00 138.00,257.00 138.00,257.00
             138.00,257.00 138.68,260.98 138.68,260.98
             139.87,265.56 143.16,267.90 145.95,262.87
             148.12,258.94 149.83,252.39 148.44,248.00
             146.56,242.06 136.85,230.64 131.99,226.66
             128.48,223.80 120.94,218.77 119.02,214.99
             116.54,210.09 119.66,204.79 122.82,201.09
             129.78,192.92 144.63,189.76 155.00,190.01
             160.27,190.14 168.67,192.65 172.96,195.70
             180.57,201.09 177.51,207.34 188.00,203.00
             188.71,210.51 190.43,210.05 197.00,212.19
             199.87,213.13 204.88,214.39 204.66,218.19
             204.66,218.19 200.94,230.00 200.94,230.00
             198.58,242.23 199.72,248.96 193.60,262.00
             188.66,272.53 184.97,273.33 183.17,276.32
             181.47,279.17 182.69,281.05 179.69,285.00
             179.69,285.00 163.00,300.40 163.00,300.40
             157.55,303.85 154.74,299.43 153.00,307.00
             150.56,307.00 145.66,306.60 143.68,307.99
             141.90,309.24 141.40,311.80 137.95,313.91
             133.75,316.48 129.51,315.54 127.30,316.60
             123.86,318.25 122.81,325.64 123.00,329.00
             123.00,329.00 121.00,329.00 121.00,329.00
             121.00,329.00 119.00,336.00 119.00,336.00
             119.00,336.00 116.00,336.00 116.00,336.00
             116.00,336.00 116.00,333.00 116.00,333.00
             107.83,335.46 111.23,338.62 107.96,343.87
             106.16,346.77 104.10,346.99 101.82,351.05
             99.38,355.42 98.96,360.30 95.81,364.91
             91.98,370.52 88.64,369.21 84.80,376.02
             80.55,383.53 77.46,396.45 75.58,405.00
             70.16,429.52 69.71,442.13 70.00,467.00
             70.09,474.65 72.44,488.83 77.80,494.49
             80.70,497.55 90.93,498.82 94.83,497.42
             94.83,497.42 100.09,494.58 100.09,494.58
             103.03,493.55 106.44,494.47 110.00,493.11
             120.35,489.17 122.77,479.75 120.00,470.00
             120.00,470.00 123.00,469.00 123.00,469.00
             122.23,475.30 121.34,479.72 129.00,481.00
             128.87,475.42 128.18,474.11 131.00,469.00
             133.30,474.59 133.74,476.65 140.00,478.00
             140.00,478.00 142.00,469.00 142.00,469.00
             150.52,473.57 152.97,479.63 160.04,484.29
             166.73,488.70 172.20,488.43 177.00,491.07
             182.03,493.83 184.77,497.61 188.42,500.28
             191.01,502.16 192.77,502.06 194.89,503.30
             201.91,507.41 195.36,512.59 205.00,515.24
             207.80,516.01 210.14,516.00 213.00,516.00
             226.72,516.00 227.01,511.82 235.00,508.81
             238.59,507.46 243.84,507.55 245.26,504.71
             246.25,502.74 245.93,497.50 246.17,495.00
             246.17,495.00 249.00,475.00 249.00,475.00
             242.73,475.73 238.15,480.57 233.00,484.00
             231.52,479.34 229.86,475.64 225.00,474.00
             225.00,474.00 224.00,477.00 224.00,477.00
             224.00,469.23 221.95,461.34 225.24,454.00
             224.18,458.56 223.22,465.38 225.24,469.67
             227.73,473.94 236.27,477.08 240.11,472.57
             242.92,469.27 241.31,463.94 243.00,458.00
             243.60,465.36 243.15,473.82 253.00,472.00
             253.00,472.00 249.00,463.00 249.00,463.00
             261.69,468.15 261.57,456.34 264.15,451.00
             266.10,447.51 277.11,434.88 264.15,431.92
             261.73,431.30 261.14,431.59 259.00,431.92
             260.68,437.02 262.30,438.42 258.00,442.00
             257.86,440.33 257.77,438.66 257.28,437.04
             254.70,428.60 245.83,432.26 240.99,431.22
             236.65,430.29 233.24,427.31 226.00,426.00
             224.11,431.21 223.76,432.12 228.00,436.00
             228.00,436.00 217.96,429.62 217.96,429.62
             217.96,429.62 208.00,431.00 208.00,431.00
             207.85,425.01 205.17,416.16 199.00,414.00
             199.00,414.00 198.00,404.87 198.00,404.87
             194.44,405.01 187.92,405.85 185.01,404.87
             180.29,402.92 178.80,398.93 175.70,396.98
             175.70,396.98 167.00,394.16 167.00,394.16
             162.69,392.49 161.21,390.75 158.00,395.00
             158.00,395.00 154.00,394.00 154.00,394.00
             154.00,394.00 153.00,400.00 153.00,400.00
             153.00,400.00 144.00,403.00 144.00,403.00
             144.00,403.00 153.95,385.00 153.95,385.00
             153.95,385.00 156.84,374.73 156.84,374.73
             156.84,374.73 169.42,362.91 169.42,362.91
             169.42,362.91 169.42,355.00 169.42,355.00
             169.42,355.00 173.00,349.00 173.00,349.00
             174.75,356.86 168.94,358.85 177.00,363.00
             182.68,356.34 185.38,360.81 189.69,357.26
             192.95,354.57 192.00,346.95 192.00,343.00
             192.00,343.00 200.00,342.00 200.00,342.00
             200.62,345.60 200.46,346.62 204.00,348.00
             204.73,340.16 208.18,336.69 211.68,330.00
             211.68,330.00 217.00,317.00 217.00,317.00
             218.13,326.67 226.55,326.52 228.53,316.00
             230.17,307.36 225.57,301.32 225.00,289.00
             226.66,290.53 228.65,292.69 230.91,293.28
             234.40,294.19 241.09,287.94 241.98,284.83
             242.64,282.52 241.42,277.60 241.21,275.00
             241.21,275.00 241.21,259.00 241.21,259.00
             241.18,243.73 245.45,228.25 241.21,213.00
             240.37,208.89 238.43,206.58 236.73,203.00
             234.39,198.11 235.44,195.48 234.43,193.41
             231.56,187.56 222.62,189.80 218.00,191.00
             221.64,181.01 217.74,175.14 209.96,168.46
             207.40,166.27 202.93,163.84 201.58,160.82
             199.72,156.64 201.08,147.22 195.86,144.17
             193.06,142.54 188.35,143.23 185.00,142.68
             178.29,141.58 173.87,137.64 170.69,140.00
             168.92,141.32 167.71,145.87 167.00,148.00
             165.37,144.53 163.56,140.05 161.37,137.00 Z
           M 139.00,143.00
           C 133.59,141.10 135.21,138.62 139.00,136.00
             139.00,136.00 139.00,143.00 139.00,143.00 Z
           M 447.42,230.00
           C 447.42,230.00 453.64,254.00 453.64,254.00
             457.34,267.49 469.28,297.10 475.43,310.00
             477.40,314.13 478.10,314.49 480.41,318.00
             486.21,326.81 487.99,332.59 488.00,343.00
             488.00,343.00 473.00,341.53 473.00,341.53
             473.00,341.53 465.00,342.92 465.00,342.92
             465.00,342.92 455.00,342.92 455.00,342.92
             443.49,342.98 446.44,341.14 441.00,340.25
             441.00,340.25 425.00,338.89 425.00,338.89
             425.00,338.89 420.02,338.89 420.02,338.89
             410.83,337.03 417.86,327.80 416.81,323.73
             416.21,321.41 414.71,320.42 413.00,319.00
             413.00,319.00 410.00,325.00 410.00,325.00
             410.00,315.70 406.16,303.67 414.00,297.00
             414.00,297.00 415.00,313.00 415.00,313.00
             415.00,313.00 419.00,313.00 419.00,313.00
             419.00,313.00 427.86,284.00 427.86,284.00
             427.86,284.00 424.98,271.22 424.98,271.22
             424.98,271.22 418.95,266.31 418.95,266.31
             418.95,266.31 417.00,260.00 417.00,260.00
             417.00,260.00 425.00,266.00 425.00,266.00
             425.00,266.00 426.00,263.00 426.00,263.00
             426.00,263.00 439.00,268.00 439.00,268.00
             439.00,268.00 435.00,257.00 435.00,257.00
             435.00,257.00 443.84,259.00 443.84,259.00
             443.84,259.00 443.84,244.00 443.84,244.00
             443.84,244.00 441.85,233.00 441.85,233.00
             440.40,227.00 437.16,227.38 441.85,216.00
             445.56,219.59 446.31,225.17 447.42,230.00 Z
           M 394.23,326.00
           C 393.43,331.48 394.70,331.18 392.00,337.00
             392.00,337.00 385.00,337.00 385.00,337.00
             377.85,322.26 385.13,318.10 394.23,307.00
             399.65,313.66 395.81,318.86 394.23,326.00 Z
           M 205.00,324.00
           C 205.00,324.00 203.00,315.00 203.00,315.00
             203.00,315.00 208.00,311.00 208.00,311.00
             208.63,315.41 207.49,320.32 205.00,324.00 Z
           M 403.00,336.00
           C 403.00,336.00 403.00,331.00 403.00,331.00
             403.00,331.00 403.00,336.00 403.00,336.00 Z
           M 136.06,338.72
           C 136.06,338.72 136.06,346.00 136.06,346.00
             136.06,346.00 130.00,363.00 130.00,363.00
             130.00,363.00 129.13,346.00 129.13,346.00
             129.13,346.00 128.00,334.00 128.00,334.00
             128.00,334.00 136.06,338.72 136.06,338.72 Z
           M 439.00,344.00
           C 439.00,344.00 438.00,345.00 438.00,345.00
             438.00,345.00 438.00,344.00 438.00,344.00
             438.00,344.00 439.00,344.00 439.00,344.00 Z
           M 463.00,355.00
           C 463.00,355.00 462.00,356.00 462.00,356.00
             462.00,356.00 462.00,355.00 462.00,355.00
             462.00,355.00 463.00,355.00 463.00,355.00 Z
           M 108.00,356.00
           C 108.00,356.00 107.00,357.00 107.00,357.00
             107.00,357.00 107.00,356.00 107.00,356.00
             107.00,356.00 108.00,356.00 108.00,356.00 Z
           M 116.00,360.00
           C 116.00,360.00 109.00,357.00 109.00,357.00
             112.89,357.13 113.59,356.79 116.00,360.00 Z
           M 136.00,403.00
           C 136.00,403.00 136.00,393.00 136.00,393.00
             137.35,396.41 137.35,399.59 136.00,403.00 Z
           M 335.00,395.00
           C 335.00,395.00 334.00,396.00 334.00,396.00
             334.00,396.00 334.00,395.00 334.00,395.00
             334.00,395.00 335.00,395.00 335.00,395.00 Z
           M 173.00,404.00
           C 173.00,404.00 174.70,418.00 174.70,418.00
             174.70,418.00 173.13,425.00 173.13,425.00
             173.13,425.00 172.00,434.00 172.00,434.00
             172.00,434.00 168.42,427.00 168.42,427.00
             168.42,427.00 170.00,404.00 170.00,404.00
             170.00,404.00 173.00,404.00 173.00,404.00 Z
           M 134.00,408.00
           C 134.00,408.00 130.00,416.00 130.00,416.00
             123.83,413.83 123.31,411.13 123.00,405.00
             123.00,405.00 134.00,408.00 134.00,408.00 Z
           M 159.00,414.00
           C 159.00,414.00 160.00,409.00 160.00,409.00
             160.00,409.00 159.00,414.00 159.00,414.00 Z
           M 193.09,426.00
           C 193.09,426.00 190.00,447.00 190.00,447.00
             190.00,447.00 190.00,417.00 190.00,417.00
             190.00,417.00 197.00,414.00 197.00,414.00
             197.00,414.00 193.09,426.00 193.09,426.00 Z
           M 342.43,439.00
           C 341.65,441.96 342.74,446.78 343.00,450.00
             343.00,450.00 347.00,450.00 347.00,450.00
             346.70,447.98 345.65,443.79 346.06,442.04
             347.10,437.59 355.06,435.11 359.00,434.00
             359.00,434.00 360.00,428.00 360.00,428.00
             353.10,428.16 344.42,431.50 342.43,439.00 Z
           M 203.00,447.79
           C 204.77,447.51 206.75,446.77 208.57,447.79
             212.92,449.55 212.47,461.31 211.00,465.00
             210.70,459.88 210.49,458.73 206.00,456.00
             206.00,456.00 204.00,460.00 204.00,460.00
             200.94,455.06 199.89,454.86 195.00,452.00
             195.00,452.00 202.00,441.00 202.00,441.00
             202.00,441.00 203.00,447.79 203.00,447.79 Z
           M 138.00,456.00
           C 139.03,459.64 139.42,461.41 138.00,465.00
             135.91,461.13 135.22,460.42 136.00,456.00
             136.00,456.00 138.00,456.00 138.00,456.00 Z
           M 319.00,468.00
           C 319.00,468.00 318.00,469.00 318.00,469.00
             318.00,469.00 318.00,468.00 318.00,468.00
             318.00,468.00 319.00,468.00 319.00,468.00 Z
           M 311.00,484.00
           C 311.00,484.00 311.00,475.00 311.00,475.00
             313.52,478.43 313.52,480.57 311.00,484.00 Z
           M 175.00,482.00
           C 170.19,481.98 167.96,482.88 166.00,478.00
             170.68,478.06 172.52,477.61 175.00,482.00 Z
           M 312.00,496.00
           C 312.00,496.00 311.00,497.00 311.00,497.00
             311.00,497.00 311.00,496.00 311.00,496.00
             311.00,496.00 312.00,496.00 312.00,496.00 Z" />
</svg>
